<?xml version="1.0" standalone="no"?>
<!DOCTYPE svg PUBLIC "-//W3C//DTD SVG 20010904//EN"
 "http://www.w3.org/TR/2001/REC-SVG-20010904/DTD/svg10.dtd">
<svg version="1.0" xmlns="http://www.w3.org/2000/svg"
 width="160.000000pt" height="171.000000pt" viewBox="0 0 160.000000 171.000000"
 preserveAspectRatio="xMidYMid meet">

<g transform="translate(0.000000,171.000000) scale(0.100000,-0.100000)"
fill="#000000" stroke="none">
<path d="M0 855 l0 -855 800 0 800 0 0 855 0 855 -800 0 -800 0 0 -855z m997
590 c139 -69 231 -191 254 -338 24 -156 -51 -289 -185 -327 -25 -7 -76 -11
-115 -8 -58 3 -77 9 -113 34 -73 51 -112 132 -72 148 19 7 44 -10 44 -31 0
-25 64 -80 109 -94 34 -10 55 -10 98 -1 74 15 118 45 151 100 23 41 27 58 27
127 0 69 -4 89 -31 145 -41 86 -108 153 -192 193 -64 30 -73 32 -187 32 -110
0 -125 -2 -179 -27 -32 -16 -60 -28 -62 -28 -2 0 -4 9 -4 20 0 26 60 65 130
85 38 10 86 14 152 11 90 -3 104 -6 175 -41z m-364 -713 c30 -42 65 -96 77
-120 21 -39 21 -45 7 -59 -20 -20 -33 -11 -58 40 -12 23 -43 74 -70 114 -33
49 -49 83 -49 104 0 31 1 31 19 15 10 -9 43 -51 74 -94z m562 -7 c24 -39 30
-61 33 -119 2 -40 -1 -90 -7 -113 -25 -94 -119 -176 -245 -215 -56 -18 -95
-23 -191 -23 -105 0 -127 3 -180 25 -47 20 -61 30 -63 49 -3 21 -1 23 20 17
104 -30 143 -36 220 -36 141 0 238 29 317 96 81 68 101 194 46 291 -25 44 -27
53 -16 67 20 23 32 16 66 -39z"/>
</g>
</svg>
